<?xml version="1.0" standalone="no"?>
<!DOCTYPE svg PUBLIC "-//W3C//DTD SVG 20010904//EN"
 "http://www.w3.org/TR/2001/REC-SVG-20010904/DTD/svg10.dtd">
<svg version="1.0" xmlns="http://www.w3.org/2000/svg"
 width="474.000000pt" height="474.000000pt" viewBox="0 0 474.000000 474.000000"
 preserveAspectRatio="xMidYMid meet">
<metadata>
Created by potrace 1.14, written by Peter Selinger 2001-2017
</metadata>
<g transform="translate(0.000000,474.000000) scale(0.100000,-0.100000)"
fill="#000000" stroke="none">
<path d="M2160 4703 c-14 -2 -73 -10 -132 -19 -177 -24 -411 -89 -546 -150
-29 -13 -55 -24 -58 -24 -9 0 -131 -62 -209 -105 -425 -238 -799 -652 -989
-1095 -15 -36 -31 -74 -36 -85 -59 -139 -128 -413 -145 -580 -4 -38 -9 -79
-11 -90 -6 -27 -5 -340 1 -390 8 -71 15 -129 20 -155 2 -14 7 -43 10 -65 17
-121 95 -377 155 -510 161 -359 362 -626 665 -885 17 -14 68 -53 115 -86 330
-237 719 -386 1119 -432 135 -15 523 -7 616 13 11 3 31 7 45 9 130 23 226 48
345 88 102 35 243 94 262 110 7 6 13 8 13 5 0 -9 203 107 286 164 136 91 258
194 369 309 90 93 110 116 175 200 19 25 38 47 42 48 5 2 8 7 8 11 0 4 30 52
66 107 82 125 181 325 235 474 40 115 92 307 104 387 3 23 8 57 11 75 14 96
19 179 19 333 0 219 -15 362 -52 510 -8 33 -17 71 -19 84 -9 49 -67 216 -109
318 -285 679 -895 1198 -1608 1368 -200 48 -336 63 -557 62 -102 0 -196 -2
-210 -4z m370 -527 c68 -6 150 -17 221 -31 15 -3 67 -16 115 -30 289 -83 546
-229 755 -430 66 -63 180 -190 193 -213 5 -9 12 -19 16 -22 10 -7 111 -164
143 -221 94 -171 166 -397 201 -629 13 -80 14 -382 3 -455 -3 -16 -8 -49 -11
-73 -10 -74 -56 -243 -93 -342 -154 -416 -467 -767 -866 -975 -255 -132 -505
-195 -797 -200 -192 -3 -302 8 -476 50 -805 192 -1380 931 -1378 1770 1 94 9
213 19 266 3 13 7 41 10 62 4 22 10 50 15 63 5 13 8 24 6 24 -7 0 62 215 93
288 167 397 490 736 879 923 101 49 305 122 370 134 18 3 63 12 100 19 37 8
110 18 162 21 52 4 96 8 97 9 4 3 153 -2 223 -8z"/>
<path d="M2527 3628 c-14 -18 -103 -170 -199 -338 -199 -347 -315 -548 -482
-835 -119 -204 -133 -233 -122 -260 10 -28 50 -32 310 -33 200 0 261 -3 267
-13 4 -7 6 -16 4 -19 -2 -3 -6 -23 -9 -44 -6 -39 -42 -240 -51 -286 -3 -14
-10 -50 -16 -80 -6 -30 -13 -68 -15 -85 -5 -30 -42 -216 -48 -245 -2 -8 -7
-35 -11 -60 -4 -25 -9 -54 -12 -65 -31 -150 -24 -184 34 -185 25 0 54 39 122
160 23 41 46 82 51 90 5 8 40 69 78 135 87 153 289 503 490 850 94 161 111
197 108 218 -6 40 -32 44 -271 45 -126 0 -249 1 -272 1 l-41 1 4 38 c2 20 9
60 14 87 5 28 12 66 15 85 3 19 14 80 25 135 10 55 26 141 35 190 9 50 27 142
40 205 13 63 26 133 30 155 3 22 10 62 15 90 10 62 -2 90 -40 93 -22 2 -34 -5
-53 -30z"/>
</g>
</svg>
